<mxfile host="app.diagrams.net" modified="2023-05-17T10:56:42.042Z" agent="Mozilla/5.0 (Windows NT 10.0; Win64; x64) AppleWebKit/537.36 (KHTML, like Gecko) Chrome/112.0.5615.138 Safari/537.36" etag="oj7AQmu7oHh0UtJwMh7V" version="21.3.0" type="device">
  <diagram name="Page-1" id="IzFs5ZDoFad7aotoAPef">
    <mxGraphModel dx="1050" dy="548" grid="1" gridSize="10" guides="1" tooltips="1" connect="1" arrows="1" fold="1" page="1" pageScale="1" pageWidth="850" pageHeight="1100" math="0" shadow="0">
      <root>
        <mxCell id="0" />
        <mxCell id="1" parent="0" />
        <mxCell id="mr3PlQWHzfGvwPhTT5ka-5" value="" style="edgeStyle=orthogonalEdgeStyle;rounded=0;orthogonalLoop=1;jettySize=auto;html=1;" edge="1" parent="1" source="mr3PlQWHzfGvwPhTT5ka-1" target="mr3PlQWHzfGvwPhTT5ka-3">
          <mxGeometry relative="1" as="geometry" />
        </mxCell>
        <mxCell id="mr3PlQWHzfGvwPhTT5ka-6" style="edgeStyle=orthogonalEdgeStyle;rounded=0;orthogonalLoop=1;jettySize=auto;html=1;entryX=0.5;entryY=0;entryDx=0;entryDy=0;" edge="1" parent="1" source="mr3PlQWHzfGvwPhTT5ka-1" target="mr3PlQWHzfGvwPhTT5ka-2">
          <mxGeometry relative="1" as="geometry" />
        </mxCell>
        <mxCell id="mr3PlQWHzfGvwPhTT5ka-1" value="Зчитування поточного часу" style="rounded=0;whiteSpace=wrap;html=1;fontSize=16;" vertex="1" parent="1">
          <mxGeometry x="155" y="80" width="150" height="60" as="geometry" />
        </mxCell>
        <mxCell id="mr3PlQWHzfGvwPhTT5ka-2" value="Виконання конвртакції" style="rounded=0;whiteSpace=wrap;html=1;fontSize=16;" vertex="1" parent="1">
          <mxGeometry x="160" y="170" width="140" height="60" as="geometry" />
        </mxCell>
        <mxCell id="mr3PlQWHzfGvwPhTT5ka-7" style="edgeStyle=orthogonalEdgeStyle;rounded=0;orthogonalLoop=1;jettySize=auto;html=1;entryX=0.5;entryY=0;entryDx=0;entryDy=0;" edge="1" parent="1" source="mr3PlQWHzfGvwPhTT5ka-3" target="mr3PlQWHzfGvwPhTT5ka-4">
          <mxGeometry relative="1" as="geometry" />
        </mxCell>
        <mxCell id="mr3PlQWHzfGvwPhTT5ka-3" value="Зчитування часу після роботи алгоритму" style="rounded=0;whiteSpace=wrap;html=1;fontSize=16;" vertex="1" parent="1">
          <mxGeometry x="140" y="250" width="180" height="60" as="geometry" />
        </mxCell>
        <mxCell id="mr3PlQWHzfGvwPhTT5ka-4" value="Обчислювання різниці значень до та після виконання алгоритму" style="rounded=0;whiteSpace=wrap;html=1;fontSize=16;" vertex="1" parent="1">
          <mxGeometry x="130" y="340" width="200" height="90" as="geometry" />
        </mxCell>
      </root>
    </mxGraphModel>
  </diagram>
</mxfile>
